<svg width="455" height="111" viewBox="0 0 455 111" fill="none" xmlns="http://www.w3.org/2000/svg">
<path d="M0.155 92L19.483 1.12H57.883C62.491 1.12 66.4163 2.31466 69.659 4.70399C72.9017 7.09333 75.3763 10.208 77.083 14.048C78.875 17.888 79.771 21.9413 79.771 26.208C79.771 29.536 79.2163 32.8213 78.107 36.064C77.083 39.2213 75.5897 42.208 73.627 45.024C71.6643 47.84 69.3603 50.3573 66.715 52.576C64.155 54.7947 61.339 56.544 58.267 57.824L70.555 92H50.587L39.835 61.536H24.091L17.691 92H0.155ZM47.771 46.048C49.563 46.048 51.2697 45.5787 52.891 44.64C54.5123 43.616 55.963 42.2933 57.243 40.672C58.6083 38.9653 59.675 37.0453 60.443 34.912C61.211 32.6933 61.595 30.3893 61.595 28C61.595 25.7813 61.211 23.8187 60.443 22.112C59.7603 20.4053 58.779 19.0827 57.499 18.144C56.3043 17.12 54.939 16.608 53.403 16.608H33.691L27.419 46.048H47.771ZM118.772 92.64C113.396 92.64 108.617 91.616 104.436 89.568C100.255 87.52 96.7133 84.7467 93.812 81.248C90.996 77.664 88.8627 73.6107 87.412 69.088C85.9613 64.5653 85.236 59.8293 85.236 54.88C85.236 49.4187 86.1747 44.0427 88.052 38.752C89.9293 33.376 92.532 28.4267 95.86 23.904C99.2733 19.296 103.241 15.2427 107.764 11.744C112.287 8.24533 117.151 5.51466 122.356 3.55199C127.647 1.504 133.108 0.479996 138.74 0.479996C144.031 0.479996 148.724 1.54666 152.82 3.67999C157.001 5.728 160.5 8.544 163.316 12.128C166.217 15.712 168.351 19.7653 169.716 24.288C171.167 28.8107 171.892 33.5467 171.892 38.496C171.892 43.9573 170.953 49.3333 169.076 54.624C167.199 59.8293 164.596 64.736 161.268 69.344C157.94 73.952 154.015 78.0053 149.492 81.504C145.055 85.0027 140.191 87.7333 134.9 89.696C129.695 91.6587 124.319 92.64 118.772 92.64ZM122.228 77.024C126.921 77.024 131.188 75.9147 135.028 73.696C138.953 71.392 142.324 68.4053 145.14 64.736C148.041 61.0667 150.217 57.056 151.668 52.704C153.204 48.2667 153.972 43.9573 153.972 39.776C153.972 35.5093 153.247 31.6267 151.796 28.128C150.431 24.544 148.34 21.6853 145.524 19.552C142.793 17.3333 139.295 16.224 135.028 16.224C130.335 16.224 126.025 17.3333 122.1 19.552C118.26 21.7707 114.932 24.7147 112.116 28.384C109.3 32.0533 107.081 36.1067 105.46 40.544C103.924 44.896 103.156 49.2053 103.156 53.472C103.156 57.6533 103.839 61.536 105.204 65.12C106.655 68.704 108.788 71.6053 111.604 73.824C114.42 75.9573 117.961 77.024 122.228 77.024ZM170.422 92C171.275 88.16 172.342 84.704 173.622 81.632C174.817 78.4747 176.395 75.5733 178.358 72.928C180.406 70.2827 182.923 67.808 185.91 65.504C188.897 63.2 192.481 60.9813 196.662 58.848C200.587 56.8 204.043 55.0507 207.03 53.6C210.102 52.064 212.619 50.656 214.582 49.376C216.63 48.096 218.166 46.7733 219.19 45.408C220.214 43.9573 220.726 42.2507 220.726 40.288C220.726 38.8373 220.385 37.5573 219.702 36.448C219.019 35.2533 217.995 34.3147 216.63 33.632C215.35 32.9493 213.686 32.608 211.638 32.608C209.761 32.608 207.969 32.864 206.262 33.376C204.555 33.888 202.891 34.656 201.27 35.68C199.734 36.6187 198.241 37.6853 196.79 38.88C195.425 39.9893 194.059 41.184 192.694 42.464L184.502 29.792C185.867 28.5973 187.702 27.3173 190.006 25.952C192.31 24.5013 194.913 23.1787 197.814 21.984C200.801 20.704 203.958 19.68 207.286 18.912C210.699 18.0587 214.241 17.632 217.91 17.632C222.774 17.632 226.827 18.4 230.07 19.936C233.398 21.472 235.915 23.5627 237.622 26.208C239.329 28.768 240.182 31.84 240.182 35.424C240.182 38.9227 239.542 42.0373 238.262 44.768C236.982 47.4987 235.275 49.888 233.142 51.936C231.094 53.8987 228.833 55.6907 226.358 57.312C223.883 58.9333 221.451 60.384 219.062 61.664C217.526 62.5173 215.819 63.456 213.942 64.48C212.15 65.504 210.315 66.656 208.438 67.936C206.646 69.1307 204.939 70.4533 203.318 71.904C201.697 73.3547 200.374 74.8907 199.35 76.512H233.014L229.686 92H170.422ZM273.068 93.28C268.033 93.28 263.681 92 260.012 89.44C256.343 86.88 253.527 83.3387 251.564 78.816C249.601 74.2933 248.62 69.1307 248.62 63.328C248.62 56.7573 249.729 50.5707 251.948 44.768C254.167 38.9653 257.196 33.888 261.036 29.536C264.961 25.184 269.356 21.7707 274.22 19.296C279.169 16.8213 284.289 15.584 289.58 15.584C294.615 15.584 298.967 16.864 302.636 19.424C306.305 21.984 309.121 25.5253 311.084 30.048C313.047 34.5707 314.028 39.776 314.028 45.664C314.028 52.2347 312.919 58.4213 310.7 64.224C308.481 70.0267 305.452 75.104 301.612 79.456C297.772 83.7227 293.377 87.0933 288.428 89.568C283.564 92.0427 278.444 93.28 273.068 93.28ZM276.396 77.536C279.041 77.536 281.559 76.768 283.948 75.232C286.337 73.6107 288.471 71.4347 290.348 68.704C292.225 65.888 293.719 62.688 294.828 59.104C295.937 55.52 296.492 51.6373 296.492 47.456C296.492 42.6773 295.596 38.7947 293.804 35.808C292.012 32.8213 289.495 31.328 286.252 31.328C283.607 31.328 281.047 32.1387 278.572 33.76C276.097 35.3813 273.921 37.6 272.044 40.416C270.167 43.1467 268.673 46.3467 267.564 50.016C266.455 53.6 265.9 57.44 265.9 61.536C265.9 66.3147 266.839 70.1973 268.716 73.184C270.593 76.0853 273.153 77.536 276.396 77.536ZM316.172 92C317.025 88.16 318.092 84.704 319.372 81.632C320.567 78.4747 322.145 75.5733 324.108 72.928C326.156 70.2827 328.673 67.808 331.66 65.504C334.647 63.2 338.231 60.9813 342.412 58.848C346.337 56.8 349.793 55.0507 352.78 53.6C355.852 52.064 358.369 50.656 360.332 49.376C362.38 48.096 363.916 46.7733 364.94 45.408C365.964 43.9573 366.476 42.2507 366.476 40.288C366.476 38.8373 366.135 37.5573 365.452 36.448C364.769 35.2533 363.745 34.3147 362.38 33.632C361.1 32.9493 359.436 32.608 357.388 32.608C355.511 32.608 353.719 32.864 352.012 33.376C350.305 33.888 348.641 34.656 347.02 35.68C345.484 36.6187 343.991 37.6853 342.54 38.88C341.175 39.9893 339.809 41.184 338.444 42.464L330.252 29.792C331.617 28.5973 333.452 27.3173 335.756 25.952C338.06 24.5013 340.663 23.1787 343.564 21.984C346.551 20.704 349.708 19.68 353.036 18.912C356.449 18.0587 359.991 17.632 363.66 17.632C368.524 17.632 372.577 18.4 375.82 19.936C379.148 21.472 381.665 23.5627 383.372 26.208C385.079 28.768 385.932 31.84 385.932 35.424C385.932 38.9227 385.292 42.0373 384.012 44.768C382.732 47.4987 381.025 49.888 378.892 51.936C376.844 53.8987 374.583 55.6907 372.108 57.312C369.633 58.9333 367.201 60.384 364.812 61.664C363.276 62.5173 361.569 63.456 359.692 64.48C357.9 65.504 356.065 66.656 354.188 67.936C352.396 69.1307 350.689 70.4533 349.068 71.904C347.447 73.3547 346.124 74.8907 345.1 76.512H378.764L375.436 92H316.172ZM409.09 110.816C402.861 110.816 397.57 109.749 393.218 107.616C388.951 105.568 385.623 102.539 383.234 98.528L395.394 86.368C396.93 89.0987 398.978 91.232 401.538 92.768C404.098 94.3893 407.469 95.2 411.65 95.2C415.575 95.2 418.861 94.6027 421.506 93.408C424.151 92.2133 426.157 90.464 427.522 88.16C428.887 85.856 429.57 83.04 429.57 79.712C429.57 76.2133 428.333 73.5253 425.858 71.648C423.383 69.7707 419.543 68.832 414.338 68.832H410.882L413.57 56.032H417.41C421.079 56.032 424.279 55.392 427.01 54.112C429.826 52.7467 432.002 50.9547 433.538 48.736C435.074 46.5173 435.842 44.0427 435.842 41.312C435.842 38.6667 434.946 36.6613 433.154 35.296C431.447 33.8453 429.058 33.12 425.986 33.12C422.402 33.12 418.946 34.016 415.618 35.808C412.375 37.6 409.474 40.1173 406.914 43.36L398.722 31.328C400.941 28.6827 403.757 26.4213 407.17 24.544C410.669 22.5813 414.466 21.0453 418.562 19.936C422.743 18.8267 426.882 18.272 430.978 18.272C438.402 18.272 444.247 19.9787 448.514 23.392C452.781 26.8053 454.914 31.3707 454.914 37.088C454.914 40.928 453.975 44.5973 452.098 48.096C450.306 51.5947 447.831 54.5813 444.674 57.056C441.602 59.5307 438.189 61.1093 434.434 61.792C438.445 62.56 441.559 64.5653 443.778 67.808C446.082 71.0507 447.234 75.0187 447.234 79.712C447.234 85.856 445.57 91.232 442.242 95.84C438.999 100.533 434.519 104.203 428.802 106.848C423.085 109.493 416.514 110.816 409.09 110.816Z" fill="white"/>
</svg>
