<svg width="561" height="246" viewBox="0 0 561 246" fill="none" xmlns="http://www.w3.org/2000/svg">
<path d="M70.806 3.12H86.55L99.734 94H81.558L78.742 71.344H49.43L37.142 94H18.966L70.806 3.12ZM78.358 58.928L74.39 23.216L54.934 58.928H78.358ZM126.861 122.544C119.864 122.544 114.189 121.307 109.837 118.832C105.57 116.443 102.2 113.029 99.725 108.592L110.989 99.504C112.696 102.661 115.17 105.136 118.413 106.928C121.656 108.72 125.368 109.616 129.549 109.616C132.877 109.616 136.077 108.933 139.149 107.568C142.221 106.288 144.909 104.24 147.213 101.424C149.602 98.6933 151.224 95.152 152.077 90.8L153.869 82.352C150.968 86.192 147.384 89.1787 143.117 91.312C138.936 93.36 134.712 94.384 130.445 94.384C125.752 94.384 121.698 93.1893 118.285 90.8C114.957 88.4107 112.44 85.2107 110.733 81.2C109.026 77.104 108.173 72.5813 108.173 67.632C108.173 62.0853 109.154 56.7947 111.117 51.76C113.165 46.7253 115.938 42.288 119.437 38.448C123.021 34.5227 127.074 31.4507 131.597 29.232C136.205 26.928 141.026 25.776 146.061 25.776C151.01 25.776 155.064 26.9707 158.221 29.36C161.464 31.664 163.853 34.7787 165.389 38.704L167.821 26.928H182.925L169.229 90.8C167.864 97.456 165.133 103.131 161.037 107.824C156.941 112.603 151.949 116.229 146.061 118.704C140.173 121.264 133.773 122.544 126.861 122.544ZM139.277 80.688C140.984 80.688 142.648 80.3893 144.269 79.792C145.976 79.1947 147.597 78.384 149.133 77.36C150.669 76.336 152.077 75.1413 153.357 73.776C154.637 72.3253 155.746 70.8747 156.685 69.424L160.013 53.424C159.672 50.7787 158.861 48.4747 157.581 46.512C156.301 44.5493 154.722 43.056 152.845 42.032C151.053 40.9227 149.048 40.368 146.829 40.368C144.013 40.368 141.368 41.0933 138.893 42.544C136.418 43.9947 134.2 45.9147 132.237 48.304C130.274 50.608 128.738 53.2107 127.629 56.112C126.52 59.0133 125.965 62 125.965 65.072C125.965 67.888 126.52 70.5333 127.629 73.008C128.738 75.3973 130.274 77.2747 132.237 78.64C134.285 80.0053 136.632 80.688 139.277 80.688ZM210.103 95.28C205.154 95.28 200.887 94.0853 197.303 91.696C193.804 89.2213 191.074 85.936 189.111 81.84C187.234 77.6587 186.295 72.9653 186.295 67.76C186.295 62.2133 187.276 56.9227 189.239 51.888C191.202 46.8533 193.89 42.3733 197.303 38.448C200.802 34.5227 204.727 31.4507 209.079 29.232C213.516 26.928 218.167 25.776 223.031 25.776C227.639 25.776 231.564 27.0133 234.807 29.488C238.05 31.8773 240.268 34.9493 241.463 38.704L244.023 27.184H261.175L251.191 74.288C251.106 74.7147 251.02 75.1413 250.935 75.568C250.85 75.9093 250.807 76.2507 250.807 76.592C250.807 78.384 251.831 79.3227 253.879 79.408L250.807 94C249.271 94.256 247.906 94.4693 246.711 94.64C245.602 94.8107 244.62 94.896 243.767 94.896C240.695 94.896 238.306 94.256 236.599 92.976C234.892 91.696 234.039 89.776 234.039 87.216C234.039 86.8747 234.082 86.4907 234.167 86.064C234.252 85.552 234.338 84.9973 234.423 84.4C234.508 83.7173 234.636 83.0347 234.807 82.352C231.564 86.5333 227.724 89.7333 223.287 91.952C218.85 94.1707 214.455 95.28 210.103 95.28ZM217.783 80.688C219.234 80.688 220.77 80.432 222.391 79.92C224.012 79.3227 225.591 78.5547 227.127 77.616C228.748 76.592 230.242 75.3973 231.607 74.032C232.972 72.5813 234.124 71.0453 235.063 69.424L238.391 53.424C238.135 50.9493 237.367 48.7307 236.087 46.768C234.807 44.8053 233.228 43.2693 231.351 42.16C229.474 40.9653 227.468 40.368 225.335 40.368C222.604 40.368 219.959 41.0933 217.399 42.544C214.924 43.9093 212.706 45.7867 210.743 48.176C208.78 50.48 207.202 53.1253 206.007 56.112C204.898 59.0133 204.343 62 204.343 65.072C204.343 67.9733 204.898 70.6187 206.007 73.008C207.116 75.3973 208.652 77.2747 210.615 78.64C212.663 80.0053 215.052 80.688 217.783 80.688ZM277.946 26.928H292.922L290.49 38.448C293.647 34.5227 297.317 31.4507 301.498 29.232C305.765 26.928 310.287 25.776 315.066 25.776C319.93 25.776 324.069 27.0133 327.482 29.488C330.981 31.8773 333.669 35.1627 335.546 39.344C337.423 43.5253 338.362 48.176 338.362 53.296C338.362 58.7573 337.381 64.048 335.418 69.168C333.455 74.2027 330.767 78.6827 327.354 82.608C324.026 86.5333 320.186 89.648 315.834 91.952C311.482 94.1707 306.917 95.28 302.138 95.28C297.274 95.28 293.221 94.128 289.978 91.824C286.735 89.4347 284.517 86.2347 283.322 82.224L275.002 121.264H257.85L277.946 26.928ZM299.578 80.688C302.309 80.688 304.911 80.0053 307.386 78.64C309.946 77.1893 312.165 75.312 314.042 73.008C316.005 70.6187 317.541 67.9733 318.65 65.072C319.845 62.0853 320.442 59.0987 320.442 56.112C320.442 53.1253 319.887 50.4373 318.778 48.048C317.754 45.6587 316.218 43.7813 314.17 42.416C312.207 41.0507 309.861 40.368 307.13 40.368C305.594 40.368 304.015 40.6667 302.394 41.264C300.773 41.776 299.151 42.544 297.53 43.568C295.994 44.592 294.543 45.7867 293.178 47.152C291.898 48.5173 290.789 50.0107 289.85 51.632L286.394 67.376C286.906 69.8507 287.759 72.112 288.954 74.16C290.149 76.208 291.642 77.8293 293.434 79.024C295.311 80.1333 297.359 80.688 299.578 80.688ZM372.065 95.28C366.433 95.28 361.526 94.0853 357.345 91.696C353.249 89.2213 350.092 85.8507 347.873 81.584C345.74 77.232 344.673 72.3253 344.673 66.864C344.673 61.3173 345.74 56.0693 347.873 51.12C350.006 46.1707 352.993 41.8187 356.833 38.064C360.673 34.224 365.153 31.2373 370.273 29.104C375.393 26.8853 380.94 25.776 386.913 25.776C391.777 25.776 396.001 26.5013 399.585 27.952C403.169 29.4027 405.942 31.536 407.905 34.352C409.868 37.0827 410.849 40.4533 410.849 44.464C410.849 51.5467 407.606 56.9227 401.121 60.592C394.721 64.2613 385.078 66.096 372.193 66.096C369.633 66.096 366.86 66.0533 363.873 65.968C360.886 65.7973 357.644 65.5413 354.145 65.2L356.321 54.448C359.393 54.704 362.209 54.9173 364.769 55.088C367.329 55.1733 369.846 55.216 372.321 55.216C377.868 55.216 382.22 54.832 385.377 54.064C388.62 53.296 390.966 52.1867 392.417 50.736C393.868 49.2853 394.593 47.5787 394.593 45.616C394.593 43.9093 394.166 42.544 393.313 41.52C392.46 40.4107 391.265 39.6 389.729 39.088C388.278 38.4907 386.529 38.192 384.481 38.192C381.153 38.192 378.081 39.0027 375.265 40.624C372.534 42.16 370.145 44.2933 368.097 47.024C366.049 49.7547 364.47 52.8693 363.361 56.368C362.252 59.8667 361.697 63.5787 361.697 67.504C361.697 70.4053 362.166 73.0507 363.105 75.44C364.129 77.744 365.622 79.536 367.585 80.816C369.548 82.096 372.065 82.736 375.137 82.736C378.55 82.736 381.75 81.9253 384.737 80.304C387.809 78.6827 390.241 76.4213 392.033 73.52L405.601 77.744C403.382 81.1573 400.481 84.1867 396.897 86.832C393.313 89.4773 389.388 91.568 385.121 93.104C380.854 94.5547 376.502 95.28 372.065 95.28ZM467.183 95.28C461.722 95.28 456.559 94.384 451.695 92.592C446.916 90.8 443.076 88.24 440.175 84.912L448.751 74.16C451.994 76.976 455.322 79.152 458.735 80.688C462.148 82.1387 465.604 82.864 469.103 82.864C471.492 82.864 473.54 82.5227 475.247 81.84C476.954 81.072 478.276 80.0907 479.215 78.896C480.154 77.616 480.623 76.1653 480.623 74.544C480.623 72.4107 479.684 70.832 477.807 69.808C475.93 68.784 472.986 67.6747 468.975 66.48C464.538 65.0293 460.868 63.664 457.967 62.384C455.151 61.0187 453.06 59.44 451.695 57.648C450.33 55.7707 449.647 53.424 449.647 50.608C449.647 45.8293 450.97 41.5627 453.615 37.808C456.346 34.0533 459.972 31.1093 464.495 28.976C469.103 26.7573 474.223 25.648 479.855 25.648C484.719 25.648 489.071 26.416 492.911 27.952C496.751 29.4027 500.164 31.7067 503.151 34.864L494.063 45.232C491.332 42.672 488.687 40.8373 486.127 39.728C483.652 38.5333 480.922 37.936 477.935 37.936C475.716 37.936 473.711 38.2773 471.919 38.96C470.212 39.5573 468.847 40.496 467.823 41.776C466.799 43.056 466.287 44.592 466.287 46.384C466.287 48.3467 467.055 49.7973 468.591 50.736C470.212 51.5893 472.986 52.6133 476.911 53.808C481.69 55.1733 485.615 56.624 488.687 58.16C491.759 59.6107 494.063 61.36 495.599 63.408C497.135 65.456 497.903 68.0587 497.903 71.216C497.903 75.9093 496.623 80.048 494.063 83.632C491.503 87.216 487.919 90.0747 483.311 92.208C478.703 94.256 473.327 95.28 467.183 95.28ZM455.279 121.264L460.783 112.048H455.663L458.223 100.016H472.687L470.127 112.048L463.087 121.264H455.279ZM518.571 26.928H535.723L521.515 94H504.363L518.571 26.928ZM524.203 0.559998H541.355L537.771 17.584H520.619L524.203 0.559998ZM20.108 153.12H39.052L52.748 204.832L88.588 153.12H107.404L88.076 244H70.54L83.34 183.84L52.492 228.64H42.892L31.116 183.84L18.316 244H0.78L20.108 153.12ZM134.065 245.28C128.433 245.28 123.526 244.085 119.345 241.696C115.249 239.221 112.092 235.851 109.873 231.584C107.74 227.232 106.673 222.325 106.673 216.864C106.673 211.317 107.74 206.069 109.873 201.12C112.006 196.171 114.993 191.819 118.833 188.064C122.673 184.224 127.153 181.237 132.273 179.104C137.393 176.885 142.94 175.776 148.913 175.776C153.777 175.776 158.001 176.501 161.585 177.952C165.169 179.403 167.942 181.536 169.905 184.352C171.868 187.083 172.849 190.453 172.849 194.464C172.849 201.547 169.606 206.923 163.121 210.592C156.721 214.261 147.078 216.096 134.193 216.096C131.633 216.096 128.86 216.053 125.873 215.968C122.886 215.797 119.644 215.541 116.145 215.2L118.321 204.448C121.393 204.704 124.209 204.917 126.769 205.088C129.329 205.173 131.846 205.216 134.321 205.216C139.868 205.216 144.22 204.832 147.377 204.064C150.62 203.296 152.966 202.187 154.417 200.736C155.868 199.285 156.593 197.579 156.593 195.616C156.593 193.909 156.166 192.544 155.313 191.52C154.46 190.411 153.265 189.6 151.729 189.088C150.278 188.491 148.529 188.192 146.481 188.192C143.153 188.192 140.081 189.003 137.265 190.624C134.534 192.16 132.145 194.293 130.097 197.024C128.049 199.755 126.47 202.869 125.361 206.368C124.252 209.867 123.697 213.579 123.697 217.504C123.697 220.405 124.166 223.051 125.105 225.44C126.129 227.744 127.622 229.536 129.585 230.816C131.548 232.096 134.065 232.736 137.137 232.736C140.55 232.736 143.75 231.925 146.737 230.304C149.809 228.683 152.241 226.421 154.033 223.52L167.601 227.744C165.382 231.157 162.481 234.187 158.897 236.832C155.313 239.477 151.388 241.568 147.121 243.104C142.854 244.555 138.502 245.28 134.065 245.28ZM180.766 233.376C180.766 232.608 180.809 231.84 180.894 231.072C180.979 230.304 181.107 229.493 181.278 228.64L189.47 190.112H181.15L183.966 176.928H192.158L196.766 155.168H213.918L209.31 176.928H222.75L219.934 190.112H206.622L199.582 222.88C199.497 223.221 199.411 223.563 199.326 223.904C199.326 224.245 199.326 224.587 199.326 224.928C199.326 226.549 199.795 227.701 200.734 228.384C201.673 229.067 202.825 229.408 204.19 229.408C205.299 229.408 206.409 229.28 207.518 229.024C208.713 228.768 209.822 228.427 210.846 228C211.87 227.573 212.766 227.232 213.534 226.976L214.046 240.544C212.339 241.312 210.419 242.08 208.286 242.848C206.153 243.531 203.934 244.085 201.63 244.512C199.326 244.939 197.022 245.152 194.718 245.152C190.707 245.152 187.379 244.256 184.734 242.464C182.089 240.587 180.766 237.557 180.766 233.376ZM247.603 245.28C242.654 245.28 238.387 244.085 234.803 241.696C231.304 239.221 228.574 235.936 226.611 231.84C224.734 227.659 223.795 222.965 223.795 217.76C223.795 212.213 224.776 206.923 226.739 201.888C228.702 196.853 231.39 192.373 234.803 188.448C238.302 184.523 242.227 181.451 246.579 179.232C251.016 176.928 255.667 175.776 260.531 175.776C265.139 175.776 269.064 177.013 272.307 179.488C275.55 181.877 277.768 184.949 278.963 188.704L281.523 177.184H298.675L288.691 224.288C288.606 224.715 288.52 225.141 288.435 225.568C288.35 225.909 288.307 226.251 288.307 226.592C288.307 228.384 289.331 229.323 291.379 229.408L288.307 244C286.771 244.256 285.406 244.469 284.211 244.64C283.102 244.811 282.12 244.896 281.267 244.896C278.195 244.896 275.806 244.256 274.099 242.976C272.392 241.696 271.539 239.776 271.539 237.216C271.539 236.875 271.582 236.491 271.667 236.064C271.752 235.552 271.838 234.997 271.923 234.4C272.008 233.717 272.136 233.035 272.307 232.352C269.064 236.533 265.224 239.733 260.787 241.952C256.35 244.171 251.955 245.28 247.603 245.28ZM255.283 230.688C256.734 230.688 258.27 230.432 259.891 229.92C261.512 229.323 263.091 228.555 264.627 227.616C266.248 226.592 267.742 225.397 269.107 224.032C270.472 222.581 271.624 221.045 272.563 219.424L275.891 203.424C275.635 200.949 274.867 198.731 273.587 196.768C272.307 194.805 270.728 193.269 268.851 192.16C266.974 190.965 264.968 190.368 262.835 190.368C260.104 190.368 257.459 191.093 254.899 192.544C252.424 193.909 250.206 195.787 248.243 198.176C246.28 200.48 244.702 203.125 243.507 206.112C242.398 209.013 241.843 212 241.843 215.072C241.843 217.973 242.398 220.619 243.507 223.008C244.616 225.397 246.152 227.275 248.115 228.64C250.163 230.005 252.552 230.688 255.283 230.688ZM315.446 176.928H330.934L328.246 189.344C330.465 186.443 333.025 184.011 335.926 182.048C338.913 180 342.113 178.464 345.526 177.44C349.025 176.331 352.609 175.776 356.278 175.776C360.203 175.776 363.233 176.459 365.366 177.824C367.499 179.189 368.993 181.067 369.846 183.456C370.785 185.76 371.254 188.363 371.254 191.264C371.254 193.056 371.126 194.848 370.87 196.64C370.614 198.432 370.315 200.267 369.974 202.144L361.142 244H343.99L351.926 206.368C352.267 205.088 352.481 203.893 352.566 202.784C352.737 201.675 352.822 200.608 352.822 199.584C352.822 196.597 352.139 194.421 350.774 193.056C349.494 191.605 347.745 190.88 345.526 190.88C343.478 190.88 341.259 191.477 338.87 192.672C336.481 193.867 334.219 195.531 332.086 197.664C329.953 199.712 328.161 202.101 326.71 204.832L318.39 244H301.238L315.446 176.928ZM406.202 245.28C399.717 245.28 394.383 244 390.202 241.44C386.106 238.88 383.077 235.467 381.114 231.2C379.151 226.848 378.17 222.069 378.17 216.864C378.17 211.403 379.151 206.197 381.114 201.248C383.162 196.299 386.021 191.904 389.69 188.064C393.359 184.224 397.669 181.237 402.618 179.104C407.653 176.885 413.157 175.776 419.13 175.776C425.615 175.776 430.906 177.056 435.002 179.616C439.183 182.176 442.255 185.589 444.218 189.856C446.181 194.123 447.162 198.901 447.162 204.192C447.162 209.653 446.138 214.859 444.09 219.808C442.127 224.757 439.311 229.152 435.642 232.992C431.973 236.832 427.621 239.861 422.586 242.08C417.637 244.213 412.175 245.28 406.202 245.28ZM408.762 230.688C411.407 230.688 413.967 230.091 416.442 228.896C418.917 227.701 421.093 225.995 422.97 223.776C424.933 221.557 426.469 218.955 427.578 215.968C428.773 212.981 429.37 209.739 429.37 206.24C429.37 203.083 428.858 200.309 427.834 197.92C426.895 195.531 425.445 193.696 423.482 192.416C421.605 191.051 419.301 190.368 416.57 190.368C413.925 190.368 411.365 190.965 408.89 192.16C406.501 193.355 404.325 195.061 402.362 197.28C400.399 199.499 398.821 202.144 397.626 205.216C396.517 208.203 395.962 211.445 395.962 214.944C395.962 218.016 396.431 220.747 397.37 223.136C398.394 225.525 399.845 227.403 401.722 228.768C403.685 230.048 406.031 230.688 408.762 230.688ZM464.946 176.928H482.098L467.89 244H450.738L464.946 176.928ZM470.578 150.56H487.73L484.146 167.584H466.994L470.578 150.56ZM509.353 245.28C504.404 245.28 500.137 244.085 496.553 241.696C493.054 239.221 490.324 235.936 488.361 231.84C486.484 227.659 485.545 222.965 485.545 217.76C485.545 212.213 486.526 206.923 488.489 201.888C490.452 196.853 493.14 192.373 496.553 188.448C500.052 184.523 503.977 181.451 508.329 179.232C512.766 176.928 517.417 175.776 522.281 175.776C526.889 175.776 530.814 177.013 534.057 179.488C537.3 181.877 539.518 184.949 540.713 188.704L543.273 177.184H560.425L550.441 224.288C550.356 224.715 550.27 225.141 550.185 225.568C550.1 225.909 550.057 226.251 550.057 226.592C550.057 228.384 551.081 229.323 553.129 229.408L550.057 244C548.521 244.256 547.156 244.469 545.961 244.64C544.852 244.811 543.87 244.896 543.017 244.896C539.945 244.896 537.556 244.256 535.849 242.976C534.142 241.696 533.289 239.776 533.289 237.216C533.289 236.875 533.332 236.491 533.417 236.064C533.502 235.552 533.588 234.997 533.673 234.4C533.758 233.717 533.886 233.035 534.057 232.352C530.814 236.533 526.974 239.733 522.537 241.952C518.1 244.171 513.705 245.28 509.353 245.28ZM517.033 230.688C518.484 230.688 520.02 230.432 521.641 229.92C523.262 229.323 524.841 228.555 526.377 227.616C527.998 226.592 529.492 225.397 530.857 224.032C532.222 222.581 533.374 221.045 534.313 219.424L537.641 203.424C537.385 200.949 536.617 198.731 535.337 196.768C534.057 194.805 532.478 193.269 530.601 192.16C528.724 190.965 526.718 190.368 524.585 190.368C521.854 190.368 519.209 191.093 516.649 192.544C514.174 193.909 511.956 195.787 509.993 198.176C508.03 200.48 506.452 203.125 505.257 206.112C504.148 209.013 503.593 212 503.593 215.072C503.593 217.973 504.148 220.619 505.257 223.008C506.366 225.397 507.902 227.275 509.865 228.64C511.913 230.005 514.302 230.688 517.033 230.688Z" fill="white"/>
</svg>
